<?xml version="1.0" encoding="UTF-8" standalone="no"?>
<svg width="17px" height="16px" viewBox="0 0 17 16" version="1.1" xmlns="http://www.w3.org/2000/svg" xmlns:xlink="http://www.w3.org/1999/xlink" xmlns:sketch="http://www.bohemiancoding.com/sketch/ns">
    <!-- Generator: Sketch 3.2 (9961) - http://www.bohemiancoding.com/sketch -->
    <title>search</title>
    <desc>Created with Sketch.</desc>
    <defs></defs>
    <g id="Page-1" stroke="none" stroke-width="1" fill="none" fill-rule="evenodd" sketch:type="MSPage">
        <g id="Artboard-1" sketch:type="MSArtboardGroup" transform="translate(-416.000000, -1102.000000)" fill="#002855">
            <path d="M426.499984,1101.99996 C423.185161,1101.99996 420.499969,1104.68515 420.499969,1107.99997 C420.499969,1109.18516 420.833303,1110.27776 421.425897,1111.20369 L416.888848,1115.72222 C416.370328,1116.24074 416.370328,1117.09259 416.888848,1117.61111 C417.148108,1117.87037 417.481442,1118 417.833295,1118 C418.166629,1118 418.518482,1117.87037 418.777742,1117.61111 L423.296272,1113.07406 C424.222201,1113.66666 425.314796,1113.99999 426.499984,1113.99999 C429.814808,1113.99999 432.5,1111.3148 432.5,1107.99997 C432.5,1104.68515 429.814808,1101.99996 426.499984,1101.99996 L426.499984,1101.99996 Z M426.499984,1111.99998 C424.296275,1111.99998 422.499974,1110.20368 422.499974,1107.99997 C422.499974,1105.79626 424.296275,1103.99996 426.499984,1103.99996 C428.703694,1103.99996 430.499995,1105.79626 430.499995,1107.99997 C430.499995,1110.20368 428.703694,1111.99998 426.499984,1111.99998 L426.499984,1111.99998 Z" id="search" sketch:type="MSShapeGroup"></path>
        </g>
    </g>
</svg>