<?xml version="1.0" encoding="UTF-8" standalone="no"?>
<svg width="54px" height="54px" viewBox="0 0 54 54" version="1.1" xmlns="http://www.w3.org/2000/svg" xmlns:xlink="http://www.w3.org/1999/xlink" xmlns:sketch="http://www.bohemiancoding.com/sketch/ns">
    <!-- Generator: Sketch 3.0.4 (8053) - http://www.bohemiancoding.com/sketch -->
    <title>cart</title>
    <desc>Created with Sketch.</desc>
    <defs></defs>
    <g id="Admin-Sprites" stroke="none" stroke-width="1" fill="none" fill-rule="evenodd" sketch:type="MSPage">
        <g id="cart" sketch:type="MSArtboardGroup" fill-opacity="0.946756114" fill="#002855">
            <path d="M17.0000367,46.9999869 C17.0000367,49.7777719 19.2222648,52 22.0000498,52 C24.7778349,52 27.0000629,49.7777719 27.0000629,46.9999869 C27.0000629,44.2222018 24.7778349,41.9999738 22.0000498,41.9999738 C19.2222648,41.9999738 17.0000367,44.2222018 17.0000367,46.9999869 L17.0000367,46.9999869 Z M33.0000787,46.9999869 C33.0000787,49.7777719 35.2223067,52 38.0000918,52 C40.7778769,52 43.0001049,49.7777719 43.0001049,46.9999869 C43.0001049,44.2222018 40.7778769,41.9999738 38.0000918,41.9999738 C35.2223067,41.9999738 33.0000787,44.2222018 33.0000787,46.9999869 L33.0000787,46.9999869 Z M50.9445702,14.2221231 C51.0556816,13.9443446 51.0001259,13.6110104 50.7779031,13.3887876 C50.611236,13.1665648 50.2779018,12.9998977 50.0001233,12.9998977 L15.9444784,12.9998977 L14.2778074,6.27765787 C13.9444731,4.94432104 12.7222477,3.99987411 11.3333552,3.99987411 L6.00000787,3.99987411 C4.33333683,3.99987411 3,5.33321095 3,6.99988198 C3,8.66655302 4.33333683,9.99988985 6.00000787,9.99988985 L9.00001574,9.99988985 L15.1111429,34.7221769 C15.3889214,36.0555137 16.6111468,36.9999607 18.0000393,36.9999607 L41.9445466,36.9999607 C43.3334391,36.9999607 44.5001088,36.0555137 44.833443,34.7221769 L50.9445702,14.2221231 Z" sketch:type="MSShapeGroup"></path>
        </g>
    </g>
</svg>