<?xml version="1.0" encoding="UTF-8" standalone="no"?>
<svg width="54px" height="54px" viewBox="0 0 54 54" version="1.1" xmlns="http://www.w3.org/2000/svg" xmlns:xlink="http://www.w3.org/1999/xlink" xmlns:sketch="http://www.bohemiancoding.com/sketch/ns">
    <!-- Generator: Sketch 3.0.4 (8053) - http://www.bohemiancoding.com/sketch -->
    <title>directions</title>
    <desc>Created with Sketch.</desc>
    <defs></defs>
    <g id="Admin-Sprites" stroke="none" stroke-width="1" fill="none" fill-rule="evenodd" sketch:type="MSPage">
        <g id="directions" sketch:type="MSArtboardGroup" fill-opacity="0.952162591" fill="#C99700">
            <path d="M50.7223474,34.7221769 C51.1112373,34.333287 51.1112373,33.6666186 50.7223474,33.2777287 L45.7223343,28.2777156 C45.5001115,28.1110485 45.2778887,27.9999371 45.0001101,27.9999371 L31.0000734,27.9999371 L31.0000734,22.9999239 L23.0000525,22.9999239 L23.0000525,27.9999371 L7.00001049,27.9999371 C6.44445348,27.9999371 6.00000787,28.4443827 6.00000787,28.9999397 L6.00000787,38.9999659 C6.00000787,39.5555229 6.44445348,39.9999685 7.00001049,39.9999685 L45.0001101,39.9999685 C45.2778887,39.9999685 45.5001115,39.8888571 45.7223343,39.72219 L50.7223474,34.7221769 Z M48.000118,7.99988461 C48.000118,7.44432759 47.5556724,6.99988198 47.0001154,6.99988198 L31.0000734,6.99988198 L31.0000734,4.99987674 C31.0000734,4.44431973 30.5556278,3.99987411 30.0000708,3.99987411 L24.0000551,3.99987411 C23.4444981,3.99987411 23.0000525,4.44431973 23.0000525,4.99987674 L23.0000525,6.99988198 L9.00001574,6.99988198 C8.72223723,6.99988198 8.50001442,7.11099339 8.27779162,7.27766049 L3.27777851,12.2776736 C2.8888886,12.6665635 2.8888886,13.3332319 3.27777851,13.7221218 L8.27779162,18.7221349 C8.50001442,18.8888021 8.72223723,18.9999135 9.00001574,18.9999135 L47.0001154,18.9999135 C47.5556724,18.9999135 48.000118,18.5554678 48.000118,17.9999108 L48.000118,7.99988461 Z M31.0000734,43.999979 L23.0000525,43.999979 L23.0000525,50.9999974 C23.0000525,51.5555544 23.4444981,52 24.0000551,52 L30.0000708,52 C30.5556278,52 31.0000734,51.5555544 31.0000734,50.9999974 L31.0000734,43.999979 Z" sketch:type="MSShapeGroup"></path>
        </g>
    </g>
</svg>