<?xml version="1.0" encoding="UTF-8" standalone="no"?>
<svg width="54px" height="54px" viewBox="0 0 54 54" version="1.1" xmlns="http://www.w3.org/2000/svg" xmlns:xlink="http://www.w3.org/1999/xlink" xmlns:sketch="http://www.bohemiancoding.com/sketch/ns">
    <!-- Generator: Sketch 3.0.4 (8053) - http://www.bohemiancoding.com/sketch -->
    <title>dollarsign</title>
    <desc>Created with Sketch.</desc>
    <defs></defs>
    <g id="Admin-Sprites" stroke="none" stroke-width="1" fill="none" fill-rule="evenodd" sketch:type="MSPage">
        <g id="dollarsign" sketch:type="MSArtboardGroup" fill-opacity="0.946756114" fill="#002855">
            <path d="M27.0000629,2.99987411 C13.7222503,2.99987411 3,13.7221245 3,26.9999371 C3,40.2777497 13.7222503,51 27.0000629,51 C40.2778755,51 51.0001259,40.2777497 51.0001259,26.9999371 C51.0001259,13.7221245 40.2778755,2.99987411 27.0000629,2.99987411 Z M30.0000708,41.7777536 L30.0000708,44.9999843 L24.0000551,44.9999843 L24.0000551,41.8333093 C18.8889306,41.1666409 16.0000341,38.9999685 16.0000341,38.9999685 L19.000042,33.9999554 C21.0000472,34.999958 24.0000551,35.9999607 27.0000629,35.9999607 C30.0000708,35.9999607 33.0000787,34.999958 33.0000787,32.9999528 C33.0000787,26.9999371 15.0000315,33.9999554 15.0000315,20.9999213 C15.0000315,15.3332398 19.6111547,12.9443446 24.0000551,12.2221205 L24.0000551,8.99988985 L30.0000708,8.99988985 L30.0000708,12.1665648 C35.1111953,12.8332332 38.0000918,14.9999056 38.0000918,14.9999056 L35.0000839,19.9999187 C33.0000787,18.9999161 30.0000708,17.9999135 27.0000629,17.9999135 C24.0000551,17.9999135 21.0000472,18.9999161 21.0000472,20.9999213 C21.0000472,26.9999371 39.0000944,19.9999187 39.0000944,32.9999528 C39.0000944,38.6666343 34.3889712,41.0555295 30.0000708,41.7777536 Z" sketch:type="MSShapeGroup"></path>
        </g>
    </g>
</svg>