<?xml version="1.0" encoding="UTF-8" standalone="no"?>
<svg width="54px" height="54px" viewBox="0 0 54 54" version="1.1" xmlns="http://www.w3.org/2000/svg" xmlns:xlink="http://www.w3.org/1999/xlink" xmlns:sketch="http://www.bohemiancoding.com/sketch/ns">
    <!-- Generator: Sketch 3.0.4 (8053) - http://www.bohemiancoding.com/sketch -->
    <title>flag</title>
    <desc>Created with Sketch.</desc>
    <defs></defs>
    <g id="Admin-Sprites" stroke="none" stroke-width="1" fill="none" fill-rule="evenodd" sketch:type="MSPage">
        <g id="flag" sketch:type="MSArtboardGroup" fill-opacity="0.77" fill="#002855">
            <path d="M45.0001101,7.6665504 C45.0001101,7.33321619 44.833443,6.99988198 44.5556645,6.83321488 C44.277886,6.61099207 43.8889961,6.61099207 43.6112176,6.72210348 C42.2778808,7.33321619 40.1667641,7.99988461 37.5000905,7.99988461 C34.2223041,7.99988461 30.5556278,6.99988198 27.0000629,5.99987936 C23.4444981,4.99987674 19.7222661,3.99987411 16.5000354,3.99987411 C13.0555819,3.99987411 10.5000197,5.16654384 9.50001705,5.72210085 C9.22223854,5.88876796 9.00001574,6.22210217 9.00001574,6.55543637 L9.00001574,50.9999974 C9.00001574,51.5555544 9.44446135,52 10.0000184,52 L14.0000288,52 C14.5555859,52 15.0000315,51.5555544 15.0000315,50.9999974 L15.0000315,28.0554928 C15.5000328,28.0554928 16.0000341,27.9999371 16.5000354,27.9999371 C19.7222661,27.9999371 23.4444981,28.9999397 27.0000629,29.9999423 C30.5556278,30.9999449 34.2223041,31.9999475 37.5000905,31.9999475 C40.8889883,31.9999475 43.5001062,30.8332778 44.4445531,30.3332765 C44.7778873,30.1110537 45.0001101,29.7777195 45.0001101,29.4443853 L45.0001101,7.6665504 Z" sketch:type="MSShapeGroup"></path>
        </g>
    </g>
</svg>