<?xml version="1.0" encoding="UTF-8" standalone="no"?>
<svg width="54px" height="54px" viewBox="0 0 54 54" version="1.1" xmlns="http://www.w3.org/2000/svg" xmlns:xlink="http://www.w3.org/1999/xlink" xmlns:sketch="http://www.bohemiancoding.com/sketch/ns">
    <!-- Generator: Sketch 3.0.4 (8053) - http://www.bohemiancoding.com/sketch -->
    <title>globe</title>
    <desc>Created with Sketch.</desc>
    <defs></defs>
    <g id="Admin-Sprites" stroke="none" stroke-width="1" fill="none" fill-rule="evenodd" sketch:type="MSPage">
        <g id="globe" sketch:type="MSArtboardGroup" fill-opacity="0.946756114" fill="#002855">
            <path d="M27.0000629,3.99987411 C13.7222503,3.99987411 3,14.7221245 3,27.9999371 C3,41.2777497 13.7222503,52 27.0000629,52 C40.2778755,52 51.0001259,41.2777497 51.0001259,27.9999371 C51.0001259,14.7221245 40.2778755,3.99987411 27.0000629,3.99987411 Z M30.0000708,46.9999869 C29.4445138,46.9999869 29.0000682,46.5555413 29.0000682,45.9999843 L29.0000682,38.8332988 C26.1111717,38.1666304 24.0000551,35.5555124 24.0000551,32.4999489 C24.0000551,31.9999475 24.0556108,31.4999462 24.1667222,30.9999449 L24.0000551,30.9999449 C18.0000393,30.9999449 13.0000262,25.9999318 13.0000262,19.9999161 C13.0000262,13.2776762 18.5555964,9.27766573 27.0000629,8.99988723 C28.0556213,8.99988723 29.1111796,9.11099863 30.1667379,9.27766573 C30.6667392,9.33322144 31.0000734,9.77766705 31.0000734,10.2776684 C30.9445177,14.2776788 29.6667366,17.0554639 29.1111796,18.1110222 C30.0556265,19.0554692 31.0000734,20.0554718 31.0000734,21.9999213 C31.0000734,23.1110353 30.1111822,23.9999266 29.0000682,23.9999266 C27.55562,23.9999266 27.5000643,21.9999213 25.500059,21.9999213 C24.1111665,21.9999213 23.0000525,23.1110353 23.0000525,24.4999279 C23.0000525,26.4999331 25.0000577,27.9999371 28.0000656,27.9999371 L32.0000761,27.9999371 C35.8889751,27.9999371 39.0000944,31.1110563 39.0000944,34.9999554 C39.0000944,41.9999738 33.0000787,46.9999869 30.0000708,46.9999869 Z" sketch:type="MSShapeGroup"></path>
        </g>
    </g>
</svg>