<?xml version="1.0" encoding="UTF-8" standalone="no"?>
<svg width="54px" height="54px" viewBox="0 0 54 54" version="1.1" xmlns="http://www.w3.org/2000/svg" xmlns:xlink="http://www.w3.org/1999/xlink" xmlns:sketch="http://www.bohemiancoding.com/sketch/ns">
    <!-- Generator: Sketch 3.0.4 (8053) - http://www.bohemiancoding.com/sketch -->
    <title>timer</title>
    <desc>Created with Sketch.</desc>
    <defs></defs>
    <g id="Admin-Sprites" stroke="none" stroke-width="1" fill="none" fill-rule="evenodd" sketch:type="MSPage">
        <g id="timer" sketch:type="MSArtboardGroup" fill-opacity="0.946756114" fill="#002855">
            <path d="M47.7223395,15.9999056 C48.1112294,15.6110157 48.1112294,14.999903 47.7223395,14.6110131 L43.4445505,10.3332241 C43.0556606,9.94433415 42.4445479,9.94433415 42.055658,10.3332241 L38.7223159,13.6110104 C37.0000892,12.388785 35.0556396,11.4998938 33.0000787,10.8887811 L33.0000787,4.99987674 C33.0000787,4.44431973 32.5556331,3.99987411 32.0000761,3.99987411 L22.0000498,3.99987411 C21.4444928,3.99987411 21.0000472,4.44431973 21.0000472,4.99987674 L21.0000472,10.8887811 C12.3333578,13.4443433 6.00000787,21.49992 6.00000787,30.9999449 C6.00000787,42.6110865 15.3889214,52 27.0000629,52 C38.6112045,52 48.000118,42.6110865 48.000118,30.9999449 C48.000118,26.6666002 46.6667812,22.611034 44.3889974,19.277692 L47.7223395,15.9999056 Z M31.0000734,30.9999449 C31.0000734,33.222173 29.222291,34.9999554 27.0000629,34.9999554 C24.7778349,34.9999554 23.0000525,33.222173 23.0000525,30.9999449 C23.0000525,30.7221664 23.0556082,30.3888322 23.1111639,30.1110537 L27.0000629,15.9999056 L31.0000734,15.9999056 L31.0000734,30.9999449 Z" sketch:type="MSShapeGroup"></path>
        </g>
    </g>
</svg>