<?xml version="1.0" encoding="UTF-8" standalone="no"?>
<svg width="54px" height="54px" viewBox="0 0 54 54" version="1.1" xmlns="http://www.w3.org/2000/svg" xmlns:xlink="http://www.w3.org/1999/xlink" xmlns:sketch="http://www.bohemiancoding.com/sketch/ns">
    <!-- Generator: Sketch 3.0.4 (8053) - http://www.bohemiancoding.com/sketch -->
    <title>users</title>
    <desc>Created with Sketch.</desc>
    <defs></defs>
    <g id="Admin-Sprites" stroke="none" stroke-width="1" fill="none" fill-rule="evenodd" sketch:type="MSPage">
        <g id="users" sketch:type="MSArtboardGroup" fill-opacity="0.952162591" fill="#C99700">
            <path d="M51.0001259,36.9999607 C51.0001259,29.9999423 41.0000997,31.9999475 41.0000997,25.777709 C41.0000997,25.777709 45.0001101,21.2776972 45.0001101,12.9998977 C45.0001101,8.05544031 40.944544,3.99987411 36.0000865,3.99987411 C31.0000734,3.99987411 27.0000629,8.05544031 27.0000629,12.9998977 C27.0000629,13.9999003 27.0556186,14.8887916 27.16673,15.7776828 L27.16673,15.8332385 C27.16673,15.8332385 31.0000734,19.2221363 31.0000734,24.9999292 C31.0000734,32.9443945 27.4445086,38.3332975 27.4445086,38.3332975 C27.4445086,38.3332975 28.3889555,39.2221887 30.7778506,39.9999685 L50.0001233,39.9999685 C50.5556803,39.9999685 51.0001259,39.5555229 51.0001259,38.9999659 L51.0001259,36.9999607 Z M33.0000787,48.9999921 C33.0000787,41.9999738 23.0000525,43.999979 23.0000525,37.7777405 C23.0000525,37.7777405 27.0000629,33.2777287 27.0000629,24.9999292 C27.0000629,20.0554718 22.9444968,15.9999056 18.0000393,15.9999056 C13.0000262,15.9999056 9.00001574,20.0554718 9.00001574,24.9999292 C9.00001574,33.2777287 13.0000262,37.7777405 13.0000262,37.7777405 C13.0000262,43.999979 3,42.0555295 3,48.9999921 L3,50.9999974 C3,51.5555544 3.44444561,52 4.00000262,52 L32.0000761,52 C32.5556331,52 33.0000787,51.5555544 33.0000787,50.9999974 L33.0000787,48.9999921 Z" sketch:type="MSShapeGroup"></path>
        </g>
    </g>
</svg>