<?xml version="1.0" encoding="UTF-8" standalone="no"?>
<svg width="36px" height="36px" viewBox="0 0 36 36" version="1.1" xmlns="http://www.w3.org/2000/svg" xmlns:xlink="http://www.w3.org/1999/xlink" xmlns:sketch="http://www.bohemiancoding.com/sketch/ns">
    <!-- Generator: Sketch 3.0.4 (8053) - http://www.bohemiancoding.com/sketch -->
    <title>info</title>
    <desc>Created with Sketch.</desc>
    <defs></defs>
    <g id="Gold-Buttons" stroke="none" stroke-width="1" fill="none" fill-rule="evenodd" sketch:type="MSPage">
        <g id="info" sketch:type="MSArtboardGroup" fill="#FFFFFF">
            <text sketch:type="MSTextLayer" font-family="SS Standard" font-size="34" font-weight="normal">
                <tspan x="1" y="35">info</tspan>
            </text>
            <g id="Imported-EPS" sketch:type="MSLayerGroup">
                <g id="Page-1" sketch:type="MSShapeGroup">
                    <path d="M21.641,16.73 C22.928,25.389 19.158,31.693 12.093,32.008 C10.083,32.097 7.21,31.182 6.18,29.713 C5.149,28.24 5.264,25.225 6.036,23.367 C8.515,17.401 13.577,15.496 21.758,16.831 C21.769,16.84 21.641,16.73 21.641,16.73" id="Fill-1"></path>
                    <path d="M27.427,15.289 C33.788,15.258 38.537,21.276 36.862,27.245 C35.636,31.613 31.364,32.647 27.974,29.396 C23.961,25.547 23.815,20.053 27.595,15.171 L27.427,15.289" id="Fill-2"></path>
                    <path d="M25.096,13.026 C15.65,13.767 7.729,11.582 0.108,6.037 C9.628,2.79 20.004,5.686 25.096,13.026" id="Fill-3"></path>
                    <path d="M27.153,11.757 C25.081,7.916 23.008,4.074 20.936,0.233 C26.726,1.091 28.758,4.605 28.774,10.897 C28.234,11.184 27.693,11.47 27.153,11.757" id="Fill-4"></path>
                </g>
            </g>
        </g>
    </g>
</svg>