<?xml version="1.0" encoding="UTF-8" standalone="no"?>
<svg width="36px" height="36px" viewBox="0 0 36 36" version="1.1" xmlns="http://www.w3.org/2000/svg" xmlns:xlink="http://www.w3.org/1999/xlink" xmlns:sketch="http://www.bohemiancoding.com/sketch/ns">
    <!-- Generator: Sketch 3.0.4 (8053) - http://www.bohemiancoding.com/sketch -->
    <title>olives</title>
    <desc>Created with Sketch.</desc>
    <defs></defs>
    <g id="Gold-Buttons" stroke="none" stroke-width="1" fill="none" fill-rule="evenodd" sketch:type="MSPage">
        <g id="olives" sketch:type="MSArtboardGroup" fill="#FFFFFF">
            <path d="M9.79391738,20.5493397 C5.98417379,23.2612791 4.41668661,27.6306124 6.29278917,30.3100366 C8.16976353,32.9903397 12.7806866,32.9657336 16.5904302,30.254673 C20.4001738,27.5427336 21.967661,23.1725215 20.0906866,20.4930972 C18.2137123,17.813673 13.603661,17.8391579 9.79391738,20.5493397 L9.79391738,20.5493397 Z M14.2313533,22.8816427 C13.084943,23.9564003 11.690943,24.3228548 11.117302,23.700673 C10.5427892,23.0784912 11.006584,21.7031882 12.1529943,20.6301882 C13.2985328,19.5554306 14.6925328,19.188976 15.2670456,19.8111579 C15.8406866,20.4333397 15.3768917,21.8086427 14.2313533,22.8816427 L14.2313533,22.8816427 Z M25.7904815,17.94637 C23.2797123,18.8040669 22.2675584,22.5441882 23.5307892,26.29837 C24.7940199,30.051673 27.8540199,32.3997942 30.3639174,31.5403397 C32.8755584,30.6808851 33.8877123,26.9425215 32.6244815,23.1883397 C31.3612507,19.4332791 28.3012507,17.0869154 25.7904815,17.94637 L25.7904815,17.94637 Z M28.0484302,23.2059154 C27.1914558,23.5530366 26.0860199,22.7990366 25.5777635,21.5212791 C25.0703789,20.2452791 25.3537123,18.9297336 26.2106866,18.58437 C27.0667892,18.2381275 28.1722251,18.9921275 28.6804815,20.2690063 C29.1878661,21.5458851 28.9054046,22.8605518 28.0484302,23.2059154 Z M23.7147379,15.6773397 C14.270584,6.010673 5.69822507,8.64703664 1.19366097,9.08643058 C9.33012251,16.7020063 16.8859687,15.8240972 23.7147379,15.6773397 Z M26.0398148,14.2124003 C27.2019174,4.54573361 21.6851994,4.10633967 20.8840199,3.66694573 C20.5187379,10.5504912 23.7147379,12.6015821 26.0398148,14.2124003 Z M20.0819687,19.2654306 L20.8840199,19.2654306 C20.8840199,19.2654306 29.0910969,14.7150669 34.4674558,15.7819154 L34.4674558,13.1868548 C24.8768405,14.9444306 20.0819687,19.2654306 20.0819687,19.2654306 Z" id="Fill-1" sketch:type="MSShapeGroup"></path>
        </g>
    </g>
</svg>