<?xml version="1.0" encoding="utf-8"?>
<!-- Generator: Adobe Illustrator 16.0.0, SVG Export Plug-In . SVG Version: 6.00 Build 0)  -->
<!DOCTYPE svg PUBLIC "-//W3C//DTD SVG 1.1//EN" "http://www.w3.org/Graphics/SVG/1.1/DTD/svg11.dtd">
<svg version="1.1" id="Layer_1" xmlns="http://www.w3.org/2000/svg" xmlns:xlink="http://www.w3.org/1999/xlink" x="0px" y="0px"
	 width="28px" height="28px" viewBox="0 0 28 28" enable-background="new 0 0 28 28" xml:space="preserve">
<g id="handset">
	<path fill="#FFFFFF" d="M27.283,20.948l-5.91-3.346c-0.652-0.371-1.572-0.104-2.068,0.613l-0.87,1.262
		c0,0.002-0.001,0.002-0.002,0.002c-0.39,0.588-1.681,1.861-3.771,0.096c-0.014-0.012-0.024-0.016-0.038-0.026
		c-0.654-0.513-1.31-1.062-1.966-1.633c-1.493-1.482-2.854-2.998-4.049-4.495c-0.011-0.013-0.014-0.023-0.024-0.036
		C6.788,11.293,8.1,9.99,8.701,9.597c0.002-0.001,0.002-0.003,0.004-0.004l1.294-0.88c0.737-0.501,1.014-1.427,0.638-2.082
		L7.246,0.709C6.872,0.055,5.929-0.184,5.117,0.184L3.58,0.881C3.494,0.92,3.417,0.968,3.339,1.015
		C1.833,1.758,0.915,2.8,0.774,3.024C0.756,3.051,0.755,3.081,0.762,3.116C-1.505,5.903,1.568,13.754,7.64,19.743
		c6.064,6.438,14.409,9.817,17.28,7.531c0.035,0.008,0.063,0.006,0.092-0.013c0.223-0.137,1.257-1.031,1.988-2.502
		c0.047-0.074,0.092-0.147,0.131-0.229l0.686-1.5C28.177,22.239,27.935,21.317,27.283,20.948z"/>
</g>
</svg>
