<?xml version="1.0" encoding="utf-8"?>
<!-- Generator: Adobe Illustrator 16.0.0, SVG Export Plug-In . SVG Version: 6.00 Build 0)  -->
<!DOCTYPE svg PUBLIC "-//W3C//DTD SVG 1.1//EN" "http://www.w3.org/Graphics/SVG/1.1/DTD/svg11.dtd">
<svg version="1.1" id="Layer_1" xmlns="http://www.w3.org/2000/svg" xmlns:xlink="http://www.w3.org/1999/xlink" x="0px" y="0px"
	 width="162.215px" height="20.682px" viewBox="0 0 162.215 20.682" enable-background="new 0 0 162.215 20.682"
	 xml:space="preserve">
<g>
	<g>
		<g>
			<g>
				<path fill="#BCBCBC" d="M119.477,6.346L119.477,6.346c0.104,0.706,1.144,5.778,1.144,5.778h-2.281L119.477,6.346z
					 M110.824,18.137h6.032l0.456-2.081h4.304l0.574,2.081h6.033l-5.649-16.575h-6.324L110.824,18.137z"/>
				<path fill="#BCBCBC" d="M96.016,1.562h5.844c5.306,0,9.357,2.434,9.357,8.525c0,4.909-3.304,8.049-7.942,8.049l-7.259-0.008
					V1.562z M101.755,13.377h0.391c1.916,0,3.333-1.147,3.333-3.311c0-2.329-1.258-3.629-3.36-3.629h-0.363V13.377z"/>
				<path fill="#BCBCBC" d="M92.542,2.08l0.31,2.722c0.073,0.646,0.441,2.194-0.012,1.985c-0.287-0.127-0.521-0.828-0.756-1.452
					c-0.118-0.316-0.684-1.813-0.83-1.924c-0.714-0.535-2.496-1.138-3.702-1.143c-3.655-0.015-6.074,2.682-6.074,7.465
					c0,3.431,1.644,7.548,5.826,7.548c1.496,0,4.365-0.474,5.146-2.603c0.353-0.963,0.675-1.821,0.908-1.56
					c0.173,0.188-0.052,0.962-0.154,1.377c-0.493,1.975-0.521,2.572-0.676,2.65c-1.89,0.946-4.312,1.259-6.434,1.259
					c-6.737,0-9.065-3.931-9.065-7.861c0-6.82,4.189-9.645,10.686-9.398C89.358,1.206,91.003,1.5,92.542,2.08"/>
				<path fill="#BCBCBC" d="M72.64,2.384l-1.079-0.377c-0.364-0.327,0.078-0.418,0.078-0.418s1.56,0.289,5.446-0.039
					c0,0,0.339,0.066,0.106,0.341l-1.275,0.546C75.084,2.8,75.084,2.591,75.084,3.5l-0.007,8.446c0,6.608-6.723,6.459-8.032,6.459
					c-0.623,0-6.74,0-6.74-5.305V4.161c0-1.562,0.165-1.518-0.352-1.7l-1.56-0.587c0,0-0.264-0.372,0.206-0.35
					c1.274,0.064,3.121,0.339,7.411,0.025c0,0,0.376,0.093,0.13,0.365l-1.249,0.363c-0.988,0.442-0.857,0.105-0.883,1.118
					l0.029,8.815c0,2.163,1.113,4.839,4.565,4.839c4.765,0,4.81-4.119,4.81-5.035l0.008-8.731
					C73.472,2.461,73.368,2.694,72.64,2.384"/>
				<g>
					<path fill="#BCBCBC" d="M149.384,16.865l1.662-4.398l0.291,0.249c1.021,0.835,2.408,1.542,3.715,1.57
						c1.17,0.027,1.741-0.285,1.586-1.273c-0.116-0.741-0.951-0.868-1.471-0.973l-1.145-0.228c-2.227-0.415-4.098-1.787-4.098-4.386
						c0-3.933,3.391-6.135,6.8-6.135c1.794,0,3.434,0.453,4.971,1.454l-1.443,3.898c-0.793-0.568-1.993-1.373-3.509-1.429
						c-0.501-0.02-1.642,0.244-1.277,1.403c0.158,0.494,0.866,0.702,1.302,0.808l1.289,0.311c2.414,0.562,4.158,1.934,4.158,4.738
						c0,3.953-3.41,5.91-6.798,5.91C153.44,18.386,151.151,17.823,149.384,16.865"/>
				</g>
				<rect x="142.452" y="1.562" fill="#BCBCBC" width="5.705" height="16.575"/>
				<polygon fill="#BCBCBC" points="135.91,1.562 141.854,1.562 135.782,18.136 130.959,18.136 124.905,1.562 130.832,1.562 
					133.371,11.562 				"/>
			</g>
			<g>
				<path fill="#DEB209" d="M35.943,1.654c0.518,1.2,0.986,2.221,1.406,3.997c0.8,5.474,1.42,9.062,1.86,10.76
					c0.126,0,0.229,0.371,0.307,1.112v0.118c0,0.662-0.428,0.996-1.289,0.996H38.11c-1.239,0-1.33-0.23-1.33-0.688
					c-0.587-1.2-0.591-2.674-0.953-4.423l-1.581-7.729l-0.764-1.172c-2.295,1.93-3.924,4.079-5.857,9.807
					c-0.427,1.265,0.058,2.646-0.321,3.872c-0.465-0.176-0.957-0.136-1.435-0.136c-0.36,0-0.542-0.181-0.542-0.541l-0.687-1.23
					c0.537-1.953,0.804-8.254,0.804-13.152c0.406-0.247,0.877-0.486,1.219-0.82c0.412-0.405,0.657-0.382,1.239-0.261
					c0.213,0.043,1.256,0.199,1.233,0.539l-0.176,2.716l0.059,0.06h0.057c0.812-0.771,1.542-1.595,2.273-2.437
					c-0.042,0.071-0.076,0.153-0.118,0.228c0.536-0.93,1.651-2.244,2.824-2.244C35.314,1.337,35.943,1.546,35.943,1.654z"/>
				<path fill="#DEB209" d="M52.998,7.005c-0.154,0.874-0.344,1.532-0.567,1.974c-0.939,1.84-3.836,2.89-7.656,2.946l-0.613,0.023
					c0.23,1.621,1.17,2.923,2.39,3.43c1.694,0.704,3.865-0.136,6.799-1.982c0.437-0.275,1.008-0.53,1.512-0.642
					c0.95-0.211,0.633,0.316,0.611,0.977c-0.009,0.295,0.168,0.432,0.242,0.669c0.063,0.207,0.116,0.014,0.077,0.292
					c-0.067,0.47-0.826,0.934-1.159,1.187c-0.29,0.222-0.487,0.665-0.785,0.833c-0.168,0.097-0.314,0.013-0.511,0.047
					c-0.41,0.072-0.78,0.51-1.127,0.73c-0.456,0.289-0.931,0.545-1.438,0.735c-1.073,0.403-2.216,0.477-3.351,0.41
					c-0.709-0.126-1.267-0.272-1.671-0.443l-0.555-0.228c-2.928-1.212-4.144-4.355-5.045-7.15c-0.331-1.023-0.4-1.881-0.046-2.902
					c0.397-1.152,0.795-2.306,1.192-3.459l0.169-0.405c0.744-1.792,2.19-2.75,3.766-2.753c1.816-0.236,3.27-0.173,4.364,0.19
					C51.775,2.207,52.908,4.048,52.998,7.005z M43.586,9.624c0.718,0.197,2.393,0.063,4.443-0.402
					c0.632-0.551,1.059-1.012,1.283-1.384c0.905-1.503,0.671-2.78-0.707-3.834l-0.698-0.278c-1.639-0.65-3.019,1.11-3.758,2.334
					C43.259,7.535,42.877,8.724,43.586,9.624z"/>
			</g>
		</g>
	</g>
	<path fill="#DEB209" d="M22.392,4.144c-0.708-1.042-1.774-1.76-2.646-2.65c-0.03,0.019-0.001,0.061-0.046,0.086
		c-0.398-0.288-0.818-0.528-1.246-0.75c-0.286-0.15-1.067-0.342-1.199-0.577c-3.175-0.44-6.132-0.412-9.102,0.965
		c-3.604,1.672-7.549,4.988-8.096,9.162c-0.136,1.038-0.026,2.082,0.253,3.087c0.14,0.511,0.322,1.009,0.523,1.499
		c0.275,0.681,0.705,1.692,1.179,2.203c3.331,3.586,8.417,4.258,12.93,2.779c1.432-0.47,2.671-1.282,4.077-1.784
		c2.007-1.638,3.97-3.617,4.507-6.247c0.134-0.662,0.215-1.402,0.229-2.169C23.792,7.771,23.394,5.617,22.392,4.144z M21.129,8.976
		c-0.013,0.332,0.011,0.545-0.056,0.793c0.022,0.101,0.005,0.103,0.03,0.226c-0.065,0.095-0.053,0.251-0.059,0.284v0.027
		c0.054,0.053-0.004,0.103-0.001,0.187c-0.016,0.088-0.034,0.174-0.053,0.263c-0.024,0.062-0.049,0.123-0.059,0.202
		c-0.009,0.103-0.057,0.168-0.086,0.255v0.109c-0.001,0.011-0.007,0.021-0.01,0.03h-0.018c0.005,0.022,0.001,0.039,0,0.055
		c-0.008,0.023-0.016,0.047-0.023,0.069c-0.023,0.032-0.053,0.059-0.062,0.104v0.029c-0.087,0.118-0.096,0.32-0.169,0.451
		c-0.021,0.027-0.03,0.065-0.03,0.114c-0.008,0.024-0.018,0.049-0.028,0.073c-0.07,0.1-0.135,0.213-0.168,0.355
		c-0.015,0.029-0.027,0.058-0.042,0.087c-0.108,0.149-0.195,0.322-0.299,0.475c-0.046,0.116-0.13,0.191-0.169,0.312
		c-0.189,0.235-0.353,0.497-0.539,0.736c-0.013,0.033-0.03,0.065-0.057,0.085c-0.109,0.149-0.24,0.274-0.352,0.42
		c-0.04,0.042-0.075,0.085-0.114,0.127c-0.053,0.027-0.101,0.059-0.12,0.119c-0.034,0.037-0.072,0.07-0.107,0.105
		c-0.123,0.113-0.247,0.229-0.366,0.346c-2.55,2.25-6.019,2.697-9.333,2.338c-0.006-0.022-0.024-0.033-0.057-0.028
		c-1.751-0.199-3.372-0.888-4.785-1.927v-0.026c-0.116-0.062-0.187-0.164-0.25-0.275c-0.013-0.022-0.027-0.041-0.041-0.068
		c-0.069-0.136-0.127-0.281-0.219-0.393c-0.103-0.19-0.197-0.39-0.228-0.653c-0.067-0.283-0.069-0.499-0.168-0.707
		c-0.072-0.003-0.009-0.096,0-0.112c0.029-0.148,0.013-0.236-0.03-0.397v-0.027c0.007-0.126,0.07-0.313,0-0.425v-0.056
		c0.055-0.087-0.008-0.349,0.086-0.312c-0.052-0.244,0.027-0.48,0.054-0.733c0.083-0.388,0.184-0.738,0.28-1.012
		C3.854,9.545,4.452,8.591,5.146,7.72C5.206,7.645,5.33,7.48,5.49,7.274c0.542-0.593,1.13-1.138,1.679-1.726h0.028
		c0.085-0.055,0.176-0.105,0.227-0.197c0.002-0.017,0.004-0.032,0.029-0.027c0.266-0.254,0.59-0.448,0.821-0.737
		c0.093-0.01,0.122-0.084,0.17-0.141c0.508-0.369,1.028-0.728,1.5-1.133c0.106-0.007,0.138-0.089,0.226-0.114
		c0.485-0.325,1.079-0.543,1.585-0.85c0.104-0.027,0.193-0.07,0.284-0.115c0.219-0.089,0.465-0.156,0.651-0.28
		c0.134-0.025,0.237-0.08,0.344-0.132c0.072-0.016,0.145-0.035,0.218-0.047c0.01,0.002,0.019,0.003,0.032,0.008V1.769
		c0.41-0.073,0.823-0.108,1.235-0.107c0.667,0.003,1.343,0.108,1.978,0.319c0.146,0.049,0.292,0.102,0.435,0.161
		c0.725,0.303,1.271,0.968,1.959,1.257c0.203,0.284,0.475,0.51,0.703,0.775c0.011,0.013,0.021,0.024,0.031,0.037
		c0.062,0.074,0.12,0.15,0.173,0.234c-0.319-0.484-1.126-0.841-2.05-1.096c-0.005-0.002-0.012-0.004-0.017-0.008
		c-0.239-0.054-0.432-0.153-0.652-0.226c-0.111-0.041-0.213-0.09-0.339-0.115c-0.2-0.062-0.435-0.049-0.566-0.113
		c-0.332-0.064-0.624-0.032-0.962-0.111h-0.029c-0.143-0.049-0.482-0.049-0.624,0h-0.028c-0.105,0.017-0.282-0.038-0.341,0.026
		h-0.027c-0.278,0.062-0.647,0.033-0.878,0.144c-0.081,0.03-0.222,0.005-0.282,0.055h-0.058c-0.164,0.024-0.299,0.078-0.453,0.115
		c-0.101,0-0.167,0.039-0.233,0.074c-0.752,0.399-3.01,0.448-3.05,1.678c0.008,0,0.015,0,0.021-0.003
		C9.189,4.97,9.16,5.078,9.165,5.194c0.612,0.143,1.656-0.529,2.246-0.707c0.904-0.272,1.875-0.59,2.806-0.637
		c1.789-0.09,3.471,0.161,4.895,1.116c0.437,0.292,0.774,0.696,1.131,1.075c0.51,0.784,0.81,1.688,0.893,2.646
		C21.133,8.769,21.13,8.854,21.129,8.976z"/>
</g>
</svg>
